<?xml version="1.0" encoding="UTF-8"?>
<svg id="Layer_1" data-name="Layer 1" xmlns="http://www.w3.org/2000/svg" viewBox="0 0 100 100">
  <defs>
    <style>
      .cls-1 {
        fill: #fff;
      }
    </style>
  </defs>
  <g id="CdiurH.tif">
    <path class="cls-1" d="m50.25,5.09c7.43,0,14.87-.21,22.29.05,12.33.42,22.37,10.88,22.44,23.2.08,14.44.08,28.87,0,43.31-.07,12.67-10.63,23.24-23.26,23.3-14.5.07-29.01.07-43.51,0-11.93-.06-22.69-10.08-22.96-21.99-.35-15.21-.36-30.45-.02-45.66.26-11.89,10.44-21.79,22.31-22.17,7.56-.25,15.14-.05,22.72-.05,0,0,0,0,0,.01Zm-4.49,47.27c0-2.83-.09-5.4.03-7.96.08-1.68-.66-2.01-2.15-2.04-8.86-.17-16.39,5.94-17.86,15-1.15,7.07,1.23,13.04,7.15,17.22,5.91,4.17,12.3,4.89,18.78,1.35,6.02-3.29,9.03-8.68,9.35-15.4.27-5.63.07-11.29.08-16.93,0-.73.08-1.45.1-1.73,3.79,1.13,7.35,2.27,10.97,3.22,1.57.41,2.43-.47,2.4-2.12-.03-1.86-.18-3.72-.05-5.57.11-1.65-.54-2.19-2.1-2.47-6.4-1.17-11.02-5.14-11.52-11.7-.04-.46-.64-1.25-1-1.26-2.74-.11-5.5-.06-8.44-.06,0,1.21,0,2.05,0,2.9.01,9.22.07,18.44.02,27.66-.02,3.14,0,6.32-.52,9.39-.77,4.47-4.9,6.93-9.53,6.1-3.97-.71-6.43-4.34-5.98-8.81.42-4.16,3.99-7.11,8.36-6.9.56.03,1.11.06,1.92.1Z"/>
  </g>
</svg>