<?xml version="1.0" encoding="UTF-8"?>
<svg id="Layer_1" data-name="Layer 1" xmlns="http://www.w3.org/2000/svg" viewBox="0 0 100 100">
  <defs>
    <style>
      .cls-1 {
        fill: #fff;
      }
    </style>
  </defs>
  <g id="lR3MkM.tif">
    <path class="cls-1" d="m5.45,49.78v-21.73c0-1-.06-2.01.02-3.01.06-.88.19-1.77.43-2.61.27-.95.7-1.86,1.07-2.78.86-2.16,2-4.14,3.64-5.81.72-.74,1.22-1.74,2.01-2.37,1.44-1.13,2.74-2.43,4.44-3.26,1.69-.83,3.31-1.78,5.25-1.89,1.08-1.05,2.56-.81,3.85-1.07,1.37-.27,2.81-.22,4.22-.22,13.63-.01,27.26-.02,40.89.01,1.59,0,3.3-.05,4.74.5,1.55.59,3.22.81,4.71,1.61,1.43.77,2.92,1.4,4.11,2.54.23.22.6.3.86.5.5.39,1.06.62,1.41,1.28.46.85,1.47,1.28,2.08,2.11,1.28,1.74,2.48,3.47,3.4,5.48,1.37,3.01,1.98,6.05,1.98,9.3,0,14.99-.01,29.98,0,44.98,0,1.88-.84,3.6-.87,5.45-1.17,1.07-1.03,2.75-1.81,3.98-.76,1.21-1.64,2.37-2.58,3.45-1.04,1.18-2.14,2.34-3.35,3.34-1.61,1.33-3.47,2.29-5.31,3.27-1.25.67-2.66.9-4,1.24-1.1.28-2.25.41-3.33.82-.25.1-.55.09-.82.09-2.87,0-5.74-.02-8.61.02-.73.01-.78-.29-.78-.88.01-11.62.03-23.24-.02-34.86,0-.92.37-.88,1.01-.88,3.87.02,7.75,0,11.62,0,.43,0,.86.02,1.29,0,.77-.04,1.16-.39,1.17-1.14.02-3.8.02-7.6,0-11.41,0-.89-.36-1.22-1.29-1.23-4.3-.01-8.61-.02-12.91,0-.6,0-.89-.07-.87-.79.05-1.79-.18-3.61.07-5.37.26-1.83.47-3.66,1.58-5.37,1.02-1.56,2.67-1.72,3.9-2.68,2.24-.09,4.45-.7,6.71-.43.14.02.37-.06.42.01.48.65,1.45.64,1.7.36.44-.49.66-1.34.67-2.05.06-3.66.04-7.32.02-10.97,0-.74-.4-1.11-1.18-1.11-3.66-.02-7.34-.23-10.97.07-2.28.19-4.64.6-6.77,1.78-.98.54-2.03.98-3.02,1.55-1.4.81-2.44,2.01-3.3,3.23-.74,1.05-2.07,1.91-1.9,3.5-1.56,1.62-1.5,3.83-2.12,5.79-.93,2.97-.93,6.04-.87,9.11.02.93-.01,1.87,0,2.8.01.48-.2.58-.64.58-2.8-.02-5.6,0-8.39-.02-.57,0-.9.02-.89.77.04,4.09.04,8.18,0,12.27,0,.75.33.77.9.76,2.44-.02,4.88-.02,7.32,0,1.5,0,1.7.19,1.7,1.68,0,11.26,0,22.52,0,33.79,0,.14-.02.29,0,.43.09.59-.2.7-.73.7-6.6-.01-13.2.07-19.8-.08-1.36-.03-2.85-.19-4.16-.8-.92-.43-1.95-.41-2.9-.8-.62-.25-1.24-.47-1.81-.83-.18-.11-.3-.42-.46-.43-2.02-.12-2.99-2.06-4.71-2.67-1.56-1.83-3.36-3.41-4.67-5.49-.87-1.38-1.43-2.85-2.11-4.3-.78-1.67-1.29-4.35-1.29-5.5.02-8.11,0-16.21,0-24.32Z"/>
  </g>
</svg>