<?xml version="1.0" encoding="UTF-8"?>
<svg id="Layer_1" data-name="Layer 1" xmlns="http://www.w3.org/2000/svg" viewBox="0 0 100 100">
  <defs>
    <style>
      .cls-1 {
        fill: #fff;
      }
    </style>
  </defs>
  <g id="bo1XnG.tif">
    <g>
      <path class="cls-1" d="m49.94,5.02c6.92,0,13.84-.06,20.76.01,11.75.13,20.95,7.37,23.59,18.58.45,1.92.58,3.96.58,5.94.05,13.55.04,27.11.03,40.66-.01,14.24-10.01,24.53-24.26,24.68-13.77.14-27.54.12-41.3,0-14.06-.13-24.2-10.45-24.24-24.52-.04-13.55-.03-27.11,0-40.66.04-14.42,10.25-24.61,24.71-24.68,6.71-.03,13.41,0,20.12,0Zm.09,81.25c6.06,0,12.13.07,18.19-.01,10.65-.14,18.03-7.49,18.1-18.1.08-12.13.08-24.25,0-36.38-.08-10.69-7.59-18.09-18.3-18.13-11.91-.05-23.83-.04-35.74,0-11.11.04-18.51,7.45-18.55,18.55-.04,11.84-.04,23.68,0,35.53.04,11.14,7.42,18.48,18.54,18.54,5.92.03,11.84,0,17.76,0Z"/>
      <path class="cls-1" d="m72.14,49.89c.04,12.41-10,22.51-22.37,22.52-12.45,0-22.48-9.92-22.56-22.35-.09-12.5,9.97-22.6,22.5-22.62,12.4-.02,22.4,9.99,22.44,22.46Zm-8.54.03c-.01-7.72-6.37-14.02-14.08-13.96-7.59.06-13.77,6.39-13.73,14.07.04,7.65,6.32,13.87,13.95,13.83,7.64-.04,13.88-6.31,13.86-13.95Z"/>
      <path class="cls-1" d="m68.03,26.32c.02-2.91,2.44-5.28,5.35-5.25,2.92.03,5.32,2.41,5.34,5.3.03,2.96-2.52,5.46-5.49,5.38-2.91-.08-5.23-2.5-5.21-5.42Z"/>
    </g>
  </g>
</svg>