<?xml version="1.0" encoding="UTF-8"?>
<svg id="Layer_1" data-name="Layer 1" xmlns="http://www.w3.org/2000/svg" viewBox="0 0 100 100">
  <defs>
    <style>
      .cls-1 {
        fill: #fff;
      }
    </style>
  </defs>
  <g id="Dtj8NH.tif">
    <g>
      <path class="cls-1" d="m94.91,50.04c0,6.71.03,13.41,0,20.12-.08,14.52-10.09,24.67-24.62,24.77-13.48.1-26.97.09-40.45-.01-14.65-.11-24.68-10.26-24.72-24.9-.03-13.34-.03-26.68,0-40.02.04-14.86,10.19-24.95,25.07-24.97,13.48-.01,26.97-.06,40.45.02,11.98.07,21.46,7.72,23.8,19.13.4,1.94.45,3.97.46,5.96.05,6.63.02,13.27.02,19.9Zm-44.63-18.91s0,.03,0,.05c-6.56,0-13.13-.17-19.69.06-4.6.16-7.78,3.15-7.91,7.47-.22,7.41-.21,14.84-.02,22.26.11,4.19,2.91,6.98,7.08,7.64,1.68.27,3.41.36,5.12.37,8.14.06,16.27.11,24.41.07,3.49-.01,7-.06,10.47-.39,4.55-.42,7.38-3.23,7.53-7.82.23-7.06.22-14.13.04-21.18-.14-5.61-2.94-8.33-8.62-8.49-6.13-.17-12.27-.04-18.41-.04Z"/>
      <path class="cls-1" d="m44.95,41.57c4.6,2.82,8.91,5.47,13.65,8.38-4.68,2.89-9,5.56-13.65,8.43v-16.81Z"/>
    </g>
  </g>
</svg>