<?xml version="1.0" encoding="UTF-8"?>
<svg id="Layer_1" data-name="Layer 1" xmlns="http://www.w3.org/2000/svg" viewBox="0 0 100 100">
  <defs>
    <style>
      .cls-1 {
        fill: #fff;
      }

      .cls-2 {
        fill: #1d1d1b;
      }

      .cls-3 {
        fill: #1d1d1d;
      }
    </style>
  </defs>
  <path class="cls-3" d="m77.77,15.75c-7.02-5.74-15.83-9.36-25.48-9.85h0c-.75-.04-1.52-.06-2.28-.06C25.7,5.84,6,25.61,6,50c0,15.86,8.33,29.77,20.83,37.55,6.73,4.19,14.66,6.61,23.17,6.61.68,0,1.37-.01,2.05-.04,23.34-1.08,41.95-20.42,41.95-44.12,0-13.83-6.32-26.16-16.23-34.25Zm-25.72,76.78c-.68.05-1.37.06-2.05.06-8.22,0-15.9-2.35-22.39-6.42l12.7-22.44c2.73,1.95,6.08,3.09,9.69,3.09.69,0,1.38-.04,2.05-.12v25.83Zm0-27.42c-.67.09-1.36.14-2.05.14-3.33,0-6.41-1.08-8.92-2.91-3.79-2.76-6.27-7.26-6.27-12.34,0-8.23,6.51-14.95,14.65-15.23.17,0,.35-.02.54-.02,3.91,0,7.47,1.48,10.17,3.93,3.09,2.79,5.02,6.83,5.02,11.32,0,7.72-5.72,14.1-13.14,15.11Zm9.08-27.68c-2.96-2.64-6.86-4.25-11.13-4.25-.13,0-.27,0-.39.01l2.52-25.72c9.34.46,17.89,3.96,24.69,9.53l-15.69,20.43Z"/>
  <path class="cls-1" d="m60.17,38.68c-2.7-2.45-6.26-3.93-10.17-3.93-.19,0-.37.01-.54.02-8.14.28-14.65,7-14.65,15.23,0,5.08,2.48,9.58,6.27,12.34,2.51,1.83,5.59,2.91,8.92,2.91.69,0,1.38-.05,2.05-.14,7.42-1.01,13.14-7.39,13.14-15.11,0-4.49-1.93-8.53-5.02-11.32Zm-10.17,14.92c-.08,0-.15,0-.23-.01h0c-.32-.02-.62-.08-.91-.18-.44-.14-.83-.37-1.17-.66-.28-.24-.51-.51-.71-.81h0c-.36-.57-.56-1.23-.56-1.94,0-1.36.75-2.53,1.85-3.15.51-.28,1.1-.44,1.73-.44,1.25,0,2.35.64,2.99,1.61.38.57.59,1.25.59,1.98,0,1.99-1.6,3.6-3.58,3.6Z"/>
  <path class="cls-2" d="m53.58,50c0,1.99-1.6,3.6-3.58,3.6-.08,0-.15,0-.23-.01h0c-.32-.02-.62-.08-.91-.18-.44-.14-.83-.37-1.17-.66-.28-.24-.51-.51-.71-.81h0c-.36-.57-.56-1.23-.56-1.94,0-1.36.75-2.53,1.85-3.15.51-.28,1.1-.44,1.73-.44,1.25,0,2.35.64,2.99,1.61.38.57.59,1.25.59,1.98Z"/>
  <path class="cls-1" d="m52.05,66.7v25.83c-.68.05-1.37.06-2.05.06-8.22,0-15.9-2.35-22.39-6.42l12.7-22.44c2.73,1.95,6.08,3.09,9.69,3.09.69,0,1.38-.04,2.05-.12Z"/>
  <path class="cls-1" d="m76.82,17l-15.69,20.43c-2.96-2.64-6.86-4.25-11.13-4.25-.13,0-.27,0-.39.01l2.52-25.72c9.34.46,17.89,3.96,24.69,9.53Z"/>
</svg>